<?xml version="1.0" encoding="UTF-8" standalone="no"?>
<!-- Generated by Pixelmator Pro 3.5.3 -->

<svg
   width="2579"
   height="441"
   viewBox="0 0 2579 441"
   version="1.1"
   id="svg2091"
   sodipodi:docname="logo.svg"
   inkscape:export-filename="logo.svg"
   inkscape:export-xdpi="96"
   inkscape:export-ydpi="96"
   xmlns:inkscape="http://www.inkscape.org/namespaces/inkscape"
   xmlns:sodipodi="http://sodipodi.sourceforge.net/DTD/sodipodi-0.dtd"
   xmlns="http://www.w3.org/2000/svg"
   xmlns:svg="http://www.w3.org/2000/svg">
  <defs
     id="defs2095" />
  <sodipodi:namedview
     id="namedview2093"
     pagecolor="#888888"
     bordercolor="#000000"
     borderopacity="0.25"
     inkscape:showpageshadow="2"
     inkscape:pageopacity="0"
     inkscape:pagecheckerboard="0"
     inkscape:deskcolor="#d1d1d1"
     showgrid="false" />
  <path
     id="Path-7"
     fill="#a863f7"
     stroke="none"
     d="m 348.35647,185.3981 c 0,94.63926 -76.72028,171.35954 -171.35954,171.35954 -94.639255,0 -171.3595368,-76.72028 -171.3595368,-171.35954 0,-94.639258 76.7202818,-171.359538 171.3595368,-171.359538 94.63926,0 171.35954,76.72028 171.35954,171.359538 z"
     style="display:inline;stroke-width:4.11724" />
  <path
     id="path1-4"
     fill="#28e2a8"
     stroke="none"
     d="m 374.37743,214.30114 c 0,94.63928 -76.72028,171.35953 -171.35954,171.35953 -94.63927,0 -171.359538,-76.72025 -171.359538,-171.35953 0,-94.63927 76.720268,-171.359553 171.359538,-171.359553 94.63926,0 171.35954,76.720283 171.35954,171.359553 z"
     style="display:inline;stroke-width:4.11724" />
  <path
     id="path2-0"
     fill="#3363ee"
     stroke="none"
     d="m 361.44929,199.27321 c 0,94.63925 -76.72029,171.35954 -171.35955,171.35954 -94.639239,0 -171.359528,-76.72029 -171.359528,-171.35954 0,-94.63927 76.720289,-171.35955 171.359528,-171.35955 94.63926,0 171.35955,76.72028 171.35955,171.35955 z"
     style="display:inline;stroke-width:4.11724" />
  <path
     id="path3-1"
     fill="#ffffff"
     stroke="none"
     d="M 108.19784,193.96196 143.77081,158.389 c 13.79274,-13.79276 33.34964,-18.40406 51.05376,-13.91627 l -21.69785,21.69786 c -0.53523,0.32937 -0.98813,0.74109 -1.44103,1.194 -0.4529,0.45289 -0.86461,0.94696 -1.194,1.44104 l -5.35242,5.3524 23.30359,23.30359 0.12353,-0.12353 16.22192,16.22192 c 1.8116,1.81159 4.1996,2.71739 6.54642,2.71739 2.34683,0 4.73482,-0.9058 6.5464,-2.71739 3.62318,-3.62318 3.62318,-9.51082 0,-13.134 l -16.22192,-16.22191 21.82138,-21.82143 44.50737,44.50741 c 1.81157,1.81155 4.19958,2.71738 6.5464,2.71738 2.34683,0 4.73483,-0.90583 6.54641,-2.71738 3.62318,-3.62317 3.62318,-9.51087 0,-13.134 l -44.50737,-44.50735 18.60992,-18.60992 -23.30357,-23.30358 -22.39779,22.39778 c -26.18565,-10.95186 -57.51785,-5.80531 -78.80398,15.43965 l -35.572956,35.57296 c -3.623173,3.62316 -3.623173,9.51083 0,13.13399 3.623158,3.62318 9.510806,3.62318 13.133996,0 z"
     style="display:inline;stroke-width:4.11724" />
  <path
     id="path4-6"
     fill="#ffffff"
     stroke="none"
     d="M 278.36339,263.09043 H 242.0905 c -9.14027,0 -17.70413,-3.54083 -24.1682,-10.00494 l -59.24708,-59.24704 c 0,0 -0.24704,-0.20586 -0.37056,-0.32938 l -6.29937,-6.29942 -44.05448,44.05448 -11.569448,36.97281 34.873028,-13.66924 31.00282,-31.00283 42.57227,42.57231 c 9.96372,9.96372 23.18006,15.43966 37.26102,15.43966 h 36.27289 c 5.10538,0 9.26379,-4.15845 9.26379,-9.26378 0,-5.10543 -4.15841,-9.26381 -9.26379,-9.26381 z"
     style="display:inline;stroke-width:4.11724" />
  <path
     id="path5"
     fill="#ffffff"
     stroke="none"
     d="m 586.51582,347.8733 c -21.51385,0 -40.36961,-3.77947 -56.56737,-11.29688 -16.19772,-7.55898 -28.86517,-18.31588 -37.91932,-32.27083 -9.09556,-13.95496 -13.74725,-30.60953 -14.03798,-49.88066 h 46.93189 c 0.29073,15.65782 5.73145,28.90664 16.36377,39.82976 10.63243,10.8815 25.58413,16.36385 44.85526,16.36385 17.02837,0 30.40186,-4.11173 40.03743,-12.37667 9.63556,-8.2235 14.45339,-18.77278 14.45339,-31.6479 0,-10.34157 -2.32591,-18.7312 -6.93603,-25.12722 -4.61012,-6.43756 -10.8815,-11.75373 -18.85576,-15.90699 -7.97427,-4.19479 -17.11144,-7.97426 -27.45305,-11.29688 -10.34167,-3.36414 -21.22317,-6.97747 -32.68617,-10.88154 -22.63531,-7.55893 -39.62211,-17.31909 -50.91902,-29.32201 -11.29688,-12.00293 -16.98679,-27.78532 -16.98679,-47.34718 -0.29073,-16.48845 3.5718,-30.858731 11.50452,-43.152379 7.97426,-12.293648 19.14653,-21.84615 33.51678,-28.699032 14.37032,-6.852881 31.23256,-10.258559 50.50369,-10.258559 19.27113,0 35.67648,3.488741 50.08833,10.466224 14.37028,6.977472 25.62558,16.696102 33.72452,29.114361 8.09882,12.418249 12.29361,26.913125 12.58434,43.360045 H 631.7864 c 0,-7.55894 -1.95203,-14.74408 -5.85609,-21.59696 -3.90407,-6.852876 -9.63553,-12.501322 -17.19451,-16.98684 -7.55889,-4.485517 -16.77913,-6.686754 -27.66072,-6.686754 -13.95499,-0.290728 -25.50101,3.198013 -34.5967,10.466224 -9.09555,7.2682 -13.6227,17.31909 -13.6227,30.1942 0,11.463 3.36415,20.26792 10.0509,26.41474 6.68675,6.14682 15.90699,11.25533 27.66075,15.28401 11.75373,4.07018 25.12723,8.72184 40.2451,14.03801 14.53642,4.77625 27.53613,10.46622 38.95759,17.1945 11.463,6.68675 20.60017,15.49167 27.45305,26.41474 6.85289,10.88154 10.2586,24.71187 10.2586,41.49108 0,14.82714 -3.77951,28.57447 -11.33849,41.28345 -7.55889,12.70894 -18.85576,23.05052 -33.93209,31.02486 -15.0763,7.97422 -33.68295,11.96135 -55.73677,11.96135 z"
     style="display:inline;fill:#000000;stroke-width:4.15326" />
  <path
     id="path6"
     fill="#ffffff"
     stroke="none"
     d="m 750.362,95.604227 c -8.38959,0 -15.284,-2.575019 -20.7663,-7.766593 -5.44082,-5.150049 -8.18192,-11.670665 -8.18192,-19.478796 0,-7.808131 2.7411,-14.328747 8.18192,-19.478795 5.44077,-5.150048 12.37671,-7.766594 20.7663,-7.766594 8.38955,0 15.284,2.575019 20.76631,7.766594 5.44077,5.191575 8.18196,11.670664 8.18196,19.478795 0,7.808131 -2.74119,14.328747 -8.18196,19.478796 -5.44082,5.191574 -12.37676,7.766593 -20.76631,7.766593 z M 728.14206,342.88943 V 135.01867 h 44.43988 v 207.87076 z"
     style="display:inline;fill:#000000;stroke-width:4.15326" />
  <path
     id="path7"
     fill="#ffffff"
     stroke="none"
     d="M 822.04728,342.84785 V 134.97714 h 39.41445 l 3.36414,36.46563 c 6.43759,-12.83358 15.86541,-22.96754 28.28371,-30.40187 12.41829,-7.39281 26.747,-11.0892 42.94472,-11.0892 25.12722,0 44.89671,7.80812 59.30856,23.46592 14.37024,15.65779 21.59694,38.95759 21.59694,69.98245 V 342.84785 H 972.93525 V 228.01019 c 0,-40.24511 -16.48845,-60.34689 -49.46534,-60.34689 -16.48844,0 -30.11114,5.8561 -40.86808,17.60982 -10.75695,11.75373 -16.11465,28.49138 -16.11465,50.29595 v 107.27878 z"
     style="display:inline;fill:#000000;stroke-width:4.15326" />
  <path
     id="path8"
     fill="#ffffff"
     stroke="none"
     d="m 1168.2216,440.11721 c -17.9006,0 -34.5968,-2.99038 -50.0883,-9.01257 -15.4917,-6.02223 -28.5745,-15.07634 -39.2068,-27.24539 -10.6323,-12.16905 -17.3192,-27.32846 -20.1018,-45.4782 h 44.0245 c 3.6134,13.12434 11.2554,23.59048 22.8429,31.44017 11.5876,7.80813 25.6257,11.75373 42.1142,11.75373 17.859,0 33.2676,-5.8146 46.1012,-17.4022 12.8335,-11.58756 19.2711,-28.98972 19.2711,-52.16492 v -28.07604 c -6.4376,10.88155 -15.99,20.51711 -28.6991,28.90674 -12.709,8.38955 -28.5743,12.58438 -47.5548,12.58438 -18.9804,0 -37.2548,-4.69323 -53.0372,-14.03806 -15.7824,-9.34484 -28.2837,-22.21995 -37.5039,-38.54226 -9.2204,-16.36385 -13.8304,-34.72127 -13.8304,-55.11378 0,-20.3925 4.61,-39.12371 13.8304,-55.32143 9.2202,-16.19772 21.7215,-28.98976 37.5039,-38.3346 15.7824,-9.34484 33.6,-14.03802 53.4525,-14.03802 17.0284,0 32.1463,3.6964 45.2706,11.08921 13.1244,7.3928 23.3413,16.57151 30.6095,27.45305 l 4.1949,-33.51681 h 40.245 v 195.28633 c 0,23.46591 -4.8178,43.36008 -14.4534,59.72389 -9.6356,16.36384 -22.7183,28.78209 -39.2067,37.29624 -16.4885,8.51422 -35.0536,12.79208 -55.7369,12.79208 z m -3.3642,-132.86277 c 13.1243,0 24.7119,-2.99039 34.8044,-9.01257 10.0508,-6.02228 18.0251,-14.24573 23.8813,-24.71195 5.856,-10.46617 8.8048,-22.42761 8.8048,-35.84264 0,-13.41503 -2.9488,-25.70869 -8.8048,-36.0503 -5.8562,-10.34162 -13.8305,-18.44048 -23.8813,-24.29658 -10.0509,-5.8561 -21.6386,-8.80491 -34.8044,-8.80491 -13.1658,0 -24.2966,2.94881 -34.3474,8.80491 -10.0509,5.8561 -18.0252,13.95496 -23.8814,24.29658 -5.8561,10.34161 -8.8048,22.34454 -8.8048,36.0503 0,13.7058 2.9487,25.37647 8.8048,35.84264 5.8562,10.46622 13.8305,18.73121 23.8814,24.71195 10.0508,6.02218 21.5138,9.01257 34.3474,9.01257 z"
     style="display:inline;fill:#000000;stroke-width:4.15326" />
  <path
     id="path9"
     fill="#ffffff"
     stroke="none"
     d="M 1324.5503,342.84785 V 41.113449 h 44.4399 V 342.88943 h -44.4399 z"
     style="display:inline;fill:#000000;stroke-width:4.15326" />
  <path
     id="path10"
     fill="#ffffff"
     stroke="none"
     d="m 1513.1499,347.8733 c -20.3926,0 -38.5007,-4.52702 -54.2831,-13.62266 -15.7825,-9.09568 -28.1592,-21.72164 -37.0887,-37.91931 -8.9295,-16.19768 -13.4149,-35.05352 -13.4149,-56.56742 0,-21.51389 4.4024,-40.90962 13.2074,-57.4396 8.8048,-16.48844 21.0984,-29.32202 36.8809,-38.54226 15.7823,-9.22023 34.1398,-13.83035 55.1137,-13.83035 20.974,0 38.1269,4.52705 53.2449,13.62269 15.0763,9.09564 26.83,21.18163 35.2196,36.25797 8.3896,15.07633 12.5843,31.7309 12.5843,49.88066 0,2.78268 -0.084,5.81457 -0.2077,9.01258 -0.1245,3.19796 -0.3738,6.76981 -0.6229,10.67388 h -161.7696 c 1.4121,20.10182 8.0158,35.42731 19.8941,45.89352 11.8783,10.46623 25.6258,15.69934 41.2835,15.69934 12.5844,0 23.1337,-2.86576 31.6478,-8.59721 8.5142,-5.73155 14.8686,-13.4981 19.0635,-23.25831 h 44.4399 c -5.607,19.5619 -16.6962,35.92571 -33.3092,49.05002 -16.6131,13.1243 -37.2548,19.68646 -61.8004,19.68646 z m 0,-181.45598 c -14.8272,0 -27.9514,4.40246 -39.4145,13.20737 -11.463,8.80492 -18.4404,22.01229 -20.974,39.62212 h 117.3713 c -0.8307,-16.19772 -6.5621,-29.07284 -17.1945,-38.54227 -10.6324,-9.51097 -23.8812,-14.24568 -39.8298,-14.24568 z"
     style="display:inline;fill:#000000;stroke-width:4.15326" />
  <path
     id="path11"
     fill="#ffffff"
     stroke="none"
     d="M 1653.1562,342.84785 V 49.503027 h 95.1512 c 34.3476,0 62.6727,6.022233 84.8512,18.025153 22.22,12.00293 38.7084,28.98977 49.4653,50.91898 10.7571,21.92921 16.1563,47.97016 16.1563,78.16437 0,30.1942 -5.3992,55.81986 -16.1563,77.74909 -10.7569,21.92921 -27.2453,38.83295 -49.4653,50.71127 -22.2198,11.87833 -50.5036,17.81754 -84.8512,17.81754 h -95.1512 z m 44.44,-37.71166 h 49.05 c 26.5394,0 47.5549,-4.31934 63.088,-12.99962 15.4918,-8.63882 26.6641,-21.09861 33.5169,-37.29632 6.8529,-16.19772 10.2585,-35.63498 10.2585,-58.27025 0,-22.63527 -3.4056,-42.19713 -10.2585,-58.68558 -6.8528,-16.48845 -18.0251,-29.11436 -33.5169,-37.919266 -15.4917,-8.804917 -36.5486,-13.20737 -63.088,-13.20737 h -49.05 z"
     style="fill:#000000;stroke-width:4.15326" />
  <path
     id="path12"
     fill="#ffffff"
     stroke="none"
     d="M 1936.8656,342.84785 V 134.97714 h 39.8297 l 3.7795,39.41444 c 7.2683,-13.70575 17.4021,-24.50423 30.4018,-32.4785 12.9998,-7.97426 28.699,-11.96138 47.1396,-11.96138 v 46.51652 h -12.1691 c -12.2935,0 -23.2583,2.0351 -32.8939,6.06376 -9.6355,4.0702 -17.319,10.88154 -23.0505,20.51711 -5.7315,9.63556 -8.5972,22.96752 -8.5972,40.03747 v 99.76129 z"
     style="fill:#000000;stroke-width:4.15326" />
  <path
     id="path13"
     fill="#ffffff"
     stroke="none"
     d="m 2157.3207,347.8733 c -17.6098,0 -32.1463,-2.94883 -43.6093,-8.80488 -11.463,-5.8561 -19.9772,-13.62273 -25.5839,-23.2583 -5.6071,-9.63561 -8.3897,-20.18485 -8.3897,-31.64781 0,-20.10182 7.8081,-36.05035 23.4657,-47.76254 15.6579,-11.75373 38.0025,-17.60983 67.0753,-17.60983 h 54.4907 v -3.77946 c 0,-16.19772 -4.4024,-28.36678 -13.2073,-36.46564 -8.8048,-8.09886 -20.1847,-12.16905 -34.1397,-12.16905 -12.2937,0 -22.9676,2.99034 -32.0632,9.01258 -9.0958,6.02222 -14.6196,14.86868 -16.5715,26.6224 h -44.44 c 1.4122,-15.07634 6.4791,-27.99298 15.284,-38.74992 8.8049,-10.75695 19.9772,-18.9804 33.5169,-24.71191 13.5396,-5.73149 28.4084,-8.59724 44.6474,-8.59724 29.0729,0 51.5422,7.60046 67.4905,22.84292 15.9071,15.24247 23.8814,35.96725 23.8814,62.25739 v 127.83742 h -38.5422 l -3.7796,-35.63503 c -5.856,11.463 -14.4117,21.0986 -25.584,28.90669 -11.1723,7.80813 -25.8334,11.75373 -44.0247,11.75373 z m 8.8049,-36.05031 c 12.0029,0 22.1369,-2.86571 30.4018,-8.59725 8.2234,-5.7315 14.6609,-13.33196 19.2712,-22.84294 4.61,-9.511 7.4759,-19.97714 8.5973,-31.44018 h -49.4655 c -17.6097,0 -30.1111,3.07341 -37.5038,9.22024 -7.3929,6.14686 -11.0894,13.83035 -11.0894,23.0506 0,9.22024 3.572,16.98683 10.674,22.42761 7.1437,5.4408 16.8206,8.18192 29.1144,8.18192 z"
     style="fill:#000000;stroke-width:4.15326" />
  <path
     id="path14"
     fill="#ffffff"
     stroke="none"
     d="M 2322.4543,342.84785 V 172.27342 h -29.7375 v -37.29628 h 29.7375 v -30.19421 c 0,-22.635264 5.6484,-38.916047 16.9868,-48.842341 11.297,-9.926294 27.3284,-14.868677 47.9703,-14.868677 h 21.8046 v 37.711613 h -15.0764 c -9.8018,0 -16.7793,2.035089 -20.9741,6.06376 -4.1945,4.070188 -6.2712,10.840006 -6.2712,20.309445 v 29.77888 h 47.7625 v 37.29628 h -47.7625 v 170.57442 h -44.44 z"
     style="fill:#000000;stroke-width:4.15326" />
  <path
     id="path15"
     fill="#ffffff"
     stroke="none"
     d="m 2508.8527,342.84785 c -20.3926,0 -36.5902,-4.94243 -48.6348,-14.86872 -12.0029,-9.92625 -18.025,-27.57761 -18.025,-53.03706 V 82.189192 h 44.4397 v 52.787948 h 58.6856 v 37.29628 h -58.6856 v 102.66865 c 0,11.46296 2.4506,19.35416 7.3514,23.67355 4.9008,4.31939 13.332,6.47909 25.3347,6.47909 H 2543.2 v 37.7116 h -34.3473 z"
     style="fill:#000000;stroke-width:4.15326" />
</svg>
