<?xml version="1.0" encoding="UTF-8" standalone="no"?>
<svg
   id="Layer_1"
   viewBox="0 0 384.51 90.84"
   version="1.1"
   sodipodi:docname="logo_dark.svg"
   inkscape:version="1.1.2 (0a00cf5339, 2022-02-04)"
   xmlns:inkscape="http://www.inkscape.org/namespaces/inkscape"
   xmlns:sodipodi="http://sodipodi.sourceforge.net/DTD/sodipodi-0.dtd"
   xmlns="http://www.w3.org/2000/svg"
   xmlns:svg="http://www.w3.org/2000/svg">
  <sodipodi:namedview
     id="namedview41"
     pagecolor="#ffffff"
     bordercolor="#666666"
     borderopacity="1.0"
     inkscape:pageshadow="2"
     inkscape:pageopacity="0.0"
     inkscape:pagecheckerboard="0"
     showgrid="false"
     inkscape:zoom="2.8540992"
     inkscape:cx="220.73514"
     inkscape:cy="45.022962"
     inkscape:window-width="1920"
     inkscape:window-height="1043"
     inkscape:window-x="0"
     inkscape:window-y="0"
     inkscape:window-maximized="1"
     inkscape:current-layer="Layer_1" />
  <defs
     id="defs4">
    <style
       id="style2">.cls-1{fill:#fff;}.cls-2{fill:#3363ee;}.cls-3{fill:#a863f7;}.cls-4{fill:#28e2a8;}</style>
  </defs>
  <g
     id="g16"
     style="fill:#ffffff">
    <path
       d="M117.59,81V10.33h24.33c5.59,0,10.18,.94,13.78,2.83,3.6,1.88,6.27,4.43,8.03,7.62,1.75,3.2,2.62,6.75,2.62,10.65,0,4.38-1.16,8.35-3.48,11.91-2.32,3.57-5.94,6.13-10.85,7.67l15.04,29.98h-12.42l-13.73-28.47h-12.62v28.47h-10.7Zm10.7-36.54h13.02c4.85,0,8.39-1.18,10.65-3.53,2.25-2.35,3.38-5.42,3.38-9.19s-1.11-6.78-3.33-9.04c-2.22-2.25-5.82-3.38-10.8-3.38h-12.92v25.14Z"
       id="path6"
       style="fill:#ffffff" />
    <path
       d="M196.74,82.21c-4.78,0-9.07-1.09-12.87-3.28s-6.81-5.25-9.04-9.19c-2.22-3.94-3.33-8.53-3.33-13.78s1.13-9.84,3.38-13.78,5.3-7,9.14-9.19c3.84-2.19,8.11-3.28,12.82-3.28s9.07,1.09,12.87,3.28c3.8,2.19,6.83,5.25,9.09,9.19,2.25,3.94,3.38,8.53,3.38,13.78s-1.13,9.84-3.38,13.78c-2.26,3.94-5.3,7-9.14,9.19s-8.14,3.28-12.92,3.28h0Zm0-9.19c2.56,0,4.93-.64,7.12-1.92s3.95-3.18,5.3-5.7c1.35-2.52,2.02-5.67,2.02-9.44s-.66-6.92-1.97-9.44-3.06-4.43-5.25-5.7c-2.19-1.28-4.56-1.92-7.12-1.92s-4.93,.64-7.12,1.92-3.95,3.18-5.3,5.7-2.02,5.67-2.02,9.44,.67,6.91,2.02,9.44c1.35,2.52,3.1,4.43,5.25,5.7,2.15,1.28,4.51,1.92,7.07,1.92h0Z"
       id="path8"
       style="fill:#ffffff" />
    <path
       d="M254.99,82.21c-4.78,0-9.07-1.09-12.87-3.28s-6.81-5.25-9.04-9.19c-2.22-3.94-3.33-8.53-3.33-13.78s1.13-9.84,3.38-13.78,5.3-7,9.14-9.19c3.84-2.19,8.11-3.28,12.82-3.28s9.07,1.09,12.87,3.28c3.8,2.19,6.83,5.25,9.09,9.19,2.25,3.94,3.38,8.53,3.38,13.78s-1.13,9.84-3.38,13.78c-2.26,3.94-5.3,7-9.14,9.19-3.84,2.19-8.14,3.28-12.92,3.28Zm0-9.19c2.56,0,4.93-.64,7.12-1.92s3.95-3.18,5.3-5.7c1.35-2.52,2.02-5.67,2.02-9.44s-.66-6.92-1.97-9.44-3.06-4.43-5.25-5.7c-2.19-1.28-4.56-1.92-7.12-1.92s-4.93,.64-7.12,1.92-3.95,3.18-5.3,5.7-2.02,5.67-2.02,9.44,.67,6.91,2.02,9.44c1.35,2.52,3.1,4.43,5.25,5.7,2.15,1.28,4.51,1.92,7.07,1.92Z"
       id="path10"
       style="fill:#ffffff" />
    <path
       d="M289.82,81V8.31h10.7V51.62l19.18-20.7h12.82l-21.3,22.71,24.43,27.36h-13.53l-21.6-25.64v25.64h-10.7Z"
       id="path12"
       style="fill:#ffffff" />
    <path
       d="M357.56,82.21c-4.24,0-7.74-.71-10.5-2.12s-4.81-3.28-6.16-5.6-2.02-4.86-2.02-7.62c0-4.85,1.88-8.68,5.65-11.51s9.15-4.24,16.15-4.24h13.13v-.91c0-3.9-1.06-6.83-3.18-8.78s-4.86-2.93-8.23-2.93c-2.96,0-5.54,.72-7.72,2.17-2.19,1.45-3.52,3.58-3.99,6.41h-10.7c.34-3.63,1.56-6.75,3.68-9.34s4.81-4.58,8.08-5.96c3.26-1.38,6.85-2.07,10.75-2.07,7,0,12.42,1.83,16.25,5.5,3.84,3.67,5.76,8.67,5.76,14.99v30.79h-9.29l-.91-8.58c-1.41,2.76-3.47,5.08-6.16,6.97-2.69,1.88-6.23,2.83-10.6,2.83h.01Zm2.12-8.68c2.89,0,5.33-.69,7.32-2.07,1.98-1.38,3.53-3.21,4.64-5.5,1.11-2.29,1.8-4.81,2.07-7.57h-11.91c-4.24,0-7.25,.74-9.04,2.22-1.78,1.48-2.67,3.33-2.67,5.55s.86,4.09,2.57,5.4c1.72,1.31,4.05,1.97,7.02,1.97Z"
       id="path14"
       style="fill:#ffffff" />
  </g>
  <g
     id="g38">
    <circle
       class="cls-3"
       cx="41.89"
       cy="41.89"
       r="41.89"
       id="circle18" />
    <circle
       class="cls-4"
       cx="48.25"
       cy="48.95"
       r="41.89"
       id="circle20" />
    <circle
       class="cls-2"
       cx="45.09"
       cy="45.28"
       r="41.89"
       id="circle22" />
    <g
       id="g36">
      <path
         class="cls-1"
         d="M51.37,71.94c-3.87,0-7.54-1.49-10.31-4.18-.98-.95-1-2.51-.05-3.49,.95-.98,2.52-1,3.49-.05,1.85,1.8,4.29,2.79,6.87,2.79,5.44,0,9.87-4.43,9.87-9.87,0-1.36,1.11-2.47,2.47-2.47s2.47,1.11,2.47,2.47c0,8.17-6.64,14.81-14.81,14.81h0Z"
         id="path24" />
      <path
         class="cls-1"
         d="M63.71,59.6c-1.36,0-2.47-1.11-2.47-2.47v-22.7c0-1.36,1.11-2.47,2.47-2.47s2.47,1.11,2.47,2.47v22.7c0,1.36-1.11,2.47-2.47,2.47Z"
         id="path26" />
      <path
         class="cls-1"
         d="M53.32,43.01c-.63,0-1.27-.24-1.75-.73l-16.95-17.03c-.96-.97-.96-2.53,0-3.49,.97-.97,2.53-.96,3.49,0l16.95,17.03c.96,.97,.96,2.53,0,3.49-.48,.48-1.11,.72-1.74,.72h0Z"
         id="path28" />
      <path
         class="cls-1"
         d="M42.87,44.62c-.63,0-1.27-.24-1.75-.73L24.23,26.94c-.96-.97-.96-2.53,0-3.49,.97-.96,2.53-.96,3.49,0l16.9,16.96c.96,.97,.96,2.53,0,3.49-.48,.48-1.11,.72-1.74,.72h0Z"
         id="path30" />
      <path
         class="cls-1"
         d="M36.85,50.64c-.63,0-1.27-.24-1.75-.73l-14.57-14.64c-.96-.97-.96-2.53,0-3.49,.97-.96,2.53-.96,3.49,0l14.57,14.64c.96,.97,.96,2.53,0,3.49-.48,.48-1.11,.72-1.74,.72h0Z"
         id="path32" />
      <path
         class="cls-1"
         d="M42.72,68.51c-.63,0-1.26-.24-1.75-.72l-19.91-19.91c-.96-.96-.96-2.53,0-3.49,.97-.96,2.53-.96,3.49,0l19.91,19.91c.96,.96,.96,2.53,0,3.49-.48,.48-1.11,.72-1.75,.72h.01Z"
         id="path34" />
    </g>
  </g>
</svg>
