<?xml version="1.0" encoding="UTF-8"?>
<!-- Generated by Pixelmator Pro 3.5.5 -->
<svg width="644" height="130" viewBox="0 0 644 130" xmlns="http://www.w3.org/2000/svg">
    <path id="Path" fill="#a863f7" stroke="none" d="M 97.169998 51.18 C 97.169998 74.166092 78.536095 92.800003 55.549999 92.800003 C 32.563908 92.800003 13.93 74.166092 13.93 51.18 C 13.93 28.193909 32.563908 9.559998 55.549999 9.559998 C 78.536095 9.559998 97.169998 28.193909 97.169998 51.18 Z"/>
    <path id="path1" fill="#28e2a8" stroke="none" d="M 103.489998 58.199997 C 103.489998 81.186096 84.856094 99.82 61.869999 99.82 C 38.883907 99.82 20.25 81.186096 20.25 58.199997 C 20.25 35.213905 38.883907 16.580002 61.869999 16.580002 C 84.856094 16.580002 103.489998 35.213905 103.489998 58.199997 Z"/>
    <path id="path2" fill="#3363ee" stroke="none" d="M 100.349998 54.550003 C 100.349998 77.536087 81.716095 96.169998 58.73 96.169998 C 35.743908 96.169998 17.110001 77.536087 17.110001 54.550003 C 17.110001 31.563911 35.743908 12.93 58.73 12.93 C 81.716095 12.93 100.349998 31.563911 100.349998 54.550003 Z"/>
    <path id="path3" fill="#ffffff" stroke="none" d="M 38.84 53.260002 L 47.48 44.620003 C 50.830002 41.269997 55.580002 40.150002 59.880001 41.239998 L 54.610001 46.510002 C 54.48 46.589996 54.369999 46.690002 54.259998 46.800003 C 54.150002 46.909996 54.049999 47.029999 53.970001 47.150002 L 52.669998 48.449997 L 58.330002 54.110001 L 58.360001 54.080002 L 62.299999 58.019997 C 62.740002 58.459999 63.32 58.68 63.889999 58.68 C 64.459999 58.68 65.040001 58.459999 65.480003 58.019997 C 66.360001 57.139999 66.360001 55.709999 65.480003 54.830002 L 61.540001 50.889999 L 66.839996 45.589996 L 77.650002 56.400002 C 78.089996 56.839996 78.669998 57.059998 79.239998 57.059998 C 79.809998 57.059998 80.389999 56.839996 80.830002 56.400002 C 81.709999 55.519997 81.709999 54.089996 80.830002 53.209999 L 70.019997 42.400002 L 74.540001 37.879997 L 68.879997 32.220001 L 63.439999 37.659996 C 57.080002 35 49.470001 36.25 44.299999 41.409996 L 35.66 50.050003 C 34.779999 50.93 34.779999 52.360001 35.66 53.239998 C 36.540001 54.120003 37.970001 54.120003 38.849998 53.239998 Z"/>
    <path id="path4" fill="#ffffff" stroke="none" d="M 80.169998 70.050003 L 71.360001 70.050003 C 69.139999 70.050003 67.059998 69.190002 65.489998 67.619995 L 51.099998 53.229996 C 51.099998 53.229996 51.040001 53.18 51.009998 53.150002 L 49.48 51.620003 L 38.779999 62.32 L 35.970001 71.300003 L 44.439999 67.979996 L 51.970001 60.449997 L 62.310001 70.790009 C 64.730003 73.210007 67.940002 74.540009 71.360001 74.540009 L 80.169998 74.540009 C 81.410004 74.540009 82.419998 73.529999 82.419998 72.290009 C 82.419998 71.050003 81.410004 70.040009 80.169998 70.040009 Z"/>
    <path id="path5" fill="#ffffff" stroke="none" d="M 154.289993 91.410004 C 149.110001 91.410004 144.570007 90.5 140.669998 88.690002 C 136.770004 86.869995 133.720001 84.279999 131.539993 80.919998 C 129.350006 77.559998 128.229996 73.550003 128.160004 68.910004 L 139.460007 68.910004 C 139.529999 72.680008 140.839996 75.869995 143.399994 78.5 C 145.960007 81.119995 149.559998 82.440002 154.199997 82.440002 C 158.300003 82.440002 161.520004 81.449997 163.839996 79.460007 C 166.160004 77.479996 167.320007 74.940002 167.320007 71.839996 C 167.320007 69.350006 166.759995 67.330002 165.649994 65.790001 C 164.539993 64.239998 163.029999 62.959999 161.110001 61.959999 C 159.190002 60.949997 156.990005 60.040001 154.5 59.239998 C 152.009995 58.43 149.389999 57.559998 146.630005 56.620003 C 141.179993 54.800003 137.089996 52.449997 134.369995 49.559998 C 131.649994 46.669998 130.279999 42.870003 130.279999 38.159996 C 130.210007 34.190002 131.139999 30.730003 133.050003 27.769997 C 134.970001 24.809998 137.660004 22.510002 141.119995 20.860001 C 144.580002 19.209999 148.639999 18.389999 153.279999 18.389999 C 157.919998 18.389999 161.869995 19.230003 165.339996 20.910004 C 168.800003 22.590004 171.509995 24.93 173.460007 27.919998 C 175.410004 30.910004 176.419998 34.400002 176.490005 38.360001 L 165.190002 38.360001 C 165.190002 36.540001 164.720001 34.809998 163.779999 33.159996 C 162.839996 31.510002 161.460007 30.150002 159.639999 29.07 C 157.820007 27.989998 155.600006 27.459999 152.979996 27.459999 C 149.619995 27.389999 146.839996 28.230003 144.649994 29.980003 C 142.460007 31.730003 141.369995 34.150002 141.369995 37.25 C 141.369995 40.010002 142.179993 42.129997 143.789993 43.610001 C 145.399994 45.089996 147.619995 46.32 150.449997 47.290001 C 153.279999 48.269997 156.5 49.389999 160.139999 50.669998 C 163.639999 51.82 166.770004 53.190002 169.520004 54.809998 C 172.279999 56.419998 174.479996 58.540001 176.130005 61.169998 C 177.779999 63.790001 178.600006 67.119995 178.600006 71.160004 C 178.600006 74.729996 177.690002 78.040009 175.869995 81.100006 C 174.050003 84.160004 171.330002 86.649994 167.699997 88.570007 C 164.070007 90.490005 159.589996 91.449997 154.279999 91.449997 Z"/>
    <path id="path6" fill="#ffffff" stroke="none" d="M 193.740005 30.669998 C 191.720001 30.669998 190.059998 30.050003 188.740005 28.800003 C 187.429993 27.559998 186.770004 25.989998 186.770004 24.110001 C 186.770004 22.230003 187.429993 20.660004 188.740005 19.419998 C 190.050003 18.18 191.720001 17.550003 193.740005 17.550003 C 195.759995 17.550003 197.419998 18.169998 198.740005 19.419998 C 200.050003 20.669998 200.710007 22.230003 200.710007 24.110001 C 200.710007 25.989998 200.050003 27.559998 198.740005 28.800003 C 197.429993 30.050003 195.759995 30.669998 193.740005 30.669998 Z M 188.389999 90.210007 L 188.389999 40.159996 L 199.089996 40.159996 L 199.089996 90.210007 L 188.389999 90.210007 Z"/>
    <path id="path7" fill="#ffffff" stroke="none" d="M 211 90.199997 L 211 40.150002 L 220.490005 40.150002 L 221.300003 48.93 C 222.850006 45.839996 225.119995 43.400002 228.110001 41.610001 C 231.100006 39.830002 234.550003 38.940002 238.449997 38.940002 C 244.5 38.940002 249.259995 40.82 252.729996 44.589996 C 256.190002 48.360001 257.929993 53.970001 257.929993 61.440002 L 257.929993 90.199997 L 247.330002 90.199997 L 247.330002 62.550003 C 247.330002 52.860001 243.360001 48.019997 235.419998 48.019997 C 231.449997 48.019997 228.169998 49.43 225.580002 52.260002 C 222.990005 55.089996 221.699997 59.120003 221.699997 64.369995 L 221.699997 90.199997 L 211 90.199997 Z"/>
    <path id="path8" fill="#ffffff" stroke="none" d="M 294.350006 113.619995 C 290.040009 113.619995 286.019989 112.899994 282.290009 111.449997 C 278.559998 110 275.410004 107.82 272.850006 104.889999 C 270.290009 101.959999 268.679993 98.309998 268.01001 93.940002 L 278.609985 93.940002 C 279.480011 97.100006 281.320007 99.619995 284.109985 101.509995 C 286.899994 103.389999 290.279999 104.339996 294.25 104.339996 C 298.549988 104.339996 302.26001 102.939995 305.350006 100.149994 C 308.440002 97.360001 309.98999 93.169998 309.98999 87.589996 L 309.98999 80.830002 C 308.440002 83.449997 306.140015 85.770004 303.079987 87.790009 C 300.019989 89.809998 296.200012 90.820007 291.630005 90.820007 C 287.059998 90.820007 282.660004 89.690002 278.859985 87.440002 C 275.059998 85.190002 272.049988 82.089996 269.829987 78.160004 C 267.609985 74.220001 266.5 69.800003 266.5 64.889999 C 266.5 59.979996 267.609985 55.470001 269.829987 51.57 C 272.049988 47.669998 275.059998 44.589996 278.859985 42.339996 C 282.660004 40.089996 286.950012 38.959999 291.730011 38.959999 C 295.829987 38.959999 299.470001 39.849998 302.630005 41.629997 C 305.790009 43.409996 308.25 45.620003 310 48.239998 L 311.01001 40.169998 L 320.700012 40.169998 L 320.700012 87.190002 C 320.700012 92.839996 319.540009 97.630005 317.220001 101.57 C 314.899994 105.509995 311.75 108.5 307.779999 110.549995 C 303.809998 112.599998 299.339996 113.629997 294.359985 113.629997 Z M 293.540009 81.630005 C 296.700012 81.630005 299.48999 80.910004 301.920013 79.460007 C 304.339996 78.009995 306.26001 76.029999 307.670013 73.509995 C 309.079987 70.990005 309.790009 68.110001 309.790009 64.879997 C 309.790009 61.650002 309.079987 58.690002 307.670013 56.199997 C 306.26001 53.709999 304.339996 51.760002 301.920013 50.349998 C 299.5 48.940002 296.709991 48.229996 293.540009 48.229996 C 290.369995 48.229996 287.690002 48.940002 285.269989 50.349998 C 282.850006 51.760002 280.929993 53.709999 279.519989 56.199997 C 278.109985 58.690002 277.399994 61.580002 277.399994 64.879997 C 277.399994 68.180008 278.109985 70.990005 279.519989 73.509995 C 280.929993 76.029999 282.850006 78.020004 285.269989 79.460007 C 287.690002 80.910004 290.450012 81.630005 293.540009 81.630005 Z"/>
    <path id="path9" fill="#ffffff" stroke="none" d="M 331.98999 90.199997 L 331.98999 17.550003 L 342.690002 17.550003 L 342.690002 90.210007 L 331.98999 90.210007 Z"/>
    <path id="path10" fill="#ffffff" stroke="none" d="M 377.399994 91.410004 C 372.48999 91.410004 368.130005 90.320007 364.329987 88.130005 C 360.529999 85.940002 357.549988 82.899994 355.399994 79 C 353.25 75.100006 352.170013 70.559998 352.170013 65.379997 C 352.170013 60.199997 353.230011 55.529999 355.350006 51.550003 C 357.470001 47.580002 360.429993 44.489998 364.230011 42.269997 C 368.029999 40.050003 372.450012 38.940002 377.5 38.940002 C 382.549988 38.940002 386.679993 40.029999 390.320007 42.220001 C 393.950012 44.409996 396.779999 47.32 398.799988 50.949997 C 400.820007 54.580002 401.829987 58.589996 401.829987 62.959999 C 401.829987 63.629997 401.809998 64.360001 401.779999 65.129997 C 401.75 65.899994 401.690002 66.759995 401.630005 67.699997 L 362.679993 67.699997 C 363.019989 72.540009 364.609985 76.229996 367.470001 78.75 C 370.329987 81.270004 373.640015 82.529999 377.410004 82.529999 C 380.440002 82.529999 382.980011 81.839996 385.029999 80.460007 C 387.079987 79.080002 388.609985 77.210007 389.619995 74.860001 L 400.320007 74.860001 C 398.970001 79.570007 396.299988 83.509995 392.299988 86.669998 C 388.299988 89.830002 383.329987 91.410004 377.420013 91.410004 Z M 377.399994 47.720001 C 373.829987 47.720001 370.670013 48.779999 367.910004 50.900002 C 365.149994 53.019997 363.470001 56.199997 362.859985 60.440002 L 391.119995 60.440002 C 390.920013 56.540001 389.540009 53.440002 386.980011 51.159996 C 384.420013 48.870003 381.230011 47.729996 377.390015 47.729996 Z"/>
    <path id="path11" fill="#ffffff" stroke="none" d="M 411.109985 90.199997 L 411.109985 19.57 L 434.019989 19.57 C 442.290009 19.57 449.109985 21.019997 454.450012 23.910004 C 459.799988 26.800003 463.769989 30.889999 466.359985 36.169998 C 468.950012 41.449997 470.25 47.720001 470.25 54.989998 C 470.25 62.260002 468.950012 68.430008 466.359985 73.710007 C 463.769989 78.990005 459.799988 83.059998 454.450012 85.919998 C 449.100006 88.779999 442.290009 90.210007 434.019989 90.210007 L 411.109985 90.210007 Z M 421.809998 81.119995 L 433.619995 81.119995 C 440.01001 81.119995 445.070007 80.080002 448.809998 77.990005 C 452.540009 75.910004 455.230011 72.910004 456.880005 69.009995 C 458.529999 65.110001 459.350006 60.43 459.350006 54.979996 C 459.350006 49.529999 458.529999 44.82 456.880005 40.849998 C 455.230011 36.879997 452.540009 33.839996 448.809998 31.720001 C 445.079987 29.599998 440.01001 28.540001 433.619995 28.540001 L 421.809998 28.540001 L 421.809998 81.119995 Z"/>
    <path id="path12" fill="#ffffff" stroke="none" d="M 479.420013 90.199997 L 479.420013 40.150002 L 489.01001 40.150002 L 489.920013 49.639999 C 491.670013 46.339996 494.109985 43.739998 497.23999 41.82 C 500.369995 39.900002 504.149994 38.940002 508.589996 38.940002 L 508.589996 50.139999 L 505.660004 50.139999 C 502.700012 50.139999 500.059998 50.629997 497.73999 51.599998 C 495.420013 52.580002 493.570007 54.220001 492.190002 56.540001 C 490.809998 58.860001 490.119995 62.07 490.119995 66.180008 L 490.119995 90.199997 L 479.420013 90.199997 Z"/>
    <path id="path13" fill="#ffffff" stroke="none" d="M 532.5 91.410004 C 528.26001 91.410004 524.76001 90.699997 522 89.290009 C 519.23999 87.880005 517.190002 86.009995 515.840027 83.690002 C 514.48999 81.369995 513.820007 78.830002 513.820007 76.070007 C 513.820007 71.229996 515.700012 67.389999 519.469971 64.57 C 523.23999 61.739998 528.619995 60.330002 535.619995 60.330002 L 548.73999 60.330002 L 548.73999 59.419998 C 548.73999 55.519997 547.679993 52.589996 545.559998 50.639999 C 543.440002 48.690002 540.700012 47.709999 537.340027 47.709999 C 534.380005 47.709999 531.809998 48.43 529.619995 49.879997 C 527.429993 51.330002 526.099976 53.459999 525.630005 56.290001 L 514.929993 56.290001 C 515.27002 52.659996 516.48999 49.550003 518.609985 46.959999 C 520.72998 44.370003 523.419983 42.389999 526.679993 41.010002 C 529.940002 39.629997 533.52002 38.940002 537.429993 38.940002 C 544.429993 38.940002 549.840027 40.769997 553.679993 44.440002 C 557.51001 48.110001 559.429993 53.099998 559.429993 59.43 L 559.429993 90.210007 L 550.150024 90.210007 L 549.23999 81.630005 C 547.830017 84.389999 545.77002 86.710007 543.080017 88.589996 C 540.390015 90.470001 536.859985 91.419998 532.47998 91.419998 Z M 534.619995 82.729996 C 537.51001 82.729996 539.950012 82.040009 541.940002 80.660004 C 543.919983 79.279999 545.469971 77.449997 546.580017 75.160004 C 547.690002 72.869995 548.380005 70.350006 548.650024 67.589996 L 536.73999 67.589996 C 532.5 67.589996 529.48999 68.330002 527.710022 69.809998 C 525.929993 71.290009 525.039978 73.139999 525.039978 75.360001 C 525.039978 77.580002 525.900024 79.449997 527.609985 80.759995 C 529.330017 82.070007 531.659973 82.729996 534.619995 82.729996 Z"/>
    <path id="path14" fill="#ffffff" stroke="none" d="M 572.26001 90.199997 L 572.26001 49.129997 L 565.099976 49.129997 L 565.099976 40.150002 L 572.26001 40.150002 L 572.26001 32.879997 C 572.26001 27.43 573.619995 23.510002 576.349976 21.120003 C 579.070007 18.730003 582.929993 17.540001 587.900024 17.540001 L 593.150024 17.540001 L 593.150024 26.620003 L 589.52002 26.620003 C 587.159973 26.620003 585.47998 27.110001 584.469971 28.080002 C 583.460022 29.059998 582.960022 30.690002 582.960022 32.970001 L 582.960022 40.139999 L 594.460022 40.139999 L 594.460022 49.120003 L 582.960022 49.120003 L 582.960022 90.190002 L 572.26001 90.190002 Z"/>
    <path id="path15" fill="#ffffff" stroke="none" d="M 617.140015 90.199997 C 612.22998 90.199997 608.330017 89.009995 605.429993 86.619995 C 602.539978 84.229996 601.090027 79.979996 601.090027 73.850006 L 601.090027 27.440002 L 611.789978 27.440002 L 611.789978 40.150002 L 625.919983 40.150002 L 625.919983 49.129997 L 611.789978 49.129997 L 611.789978 73.850006 C 611.789978 76.610001 612.380005 78.509995 613.559998 79.550003 C 614.73999 80.589996 616.77002 81.110001 619.659973 81.110001 L 625.409973 81.110001 L 625.409973 90.190002 L 617.140015 90.190002 Z"/>
</svg>
